<svg width="89" height="10" viewBox="0 0 89 10" fill="none" xmlns="http://www.w3.org/2000/svg">
<path d="M3.39 6.06C3.39 6.64 3.1 7.06 2.49 7.06C1.88 7.06 1.6 6.64 1.59 6.06H0.44C0.44 7.32 1.29 8.07 2.49 8.07C3.69 8.07 4.54 7.32 4.54 6.06V1.05H3.39V6.06ZM11.0845 8H12.2845L9.79453 1.04H8.47453L5.98453 8H7.17453L7.67453 6.58H10.5845L11.0845 8ZM10.2645 5.65H7.99453L9.13453 2.42L10.2645 5.65ZM17.9372 1.04V6.22L14.5072 1.04H13.3672V8H14.5072V2.81L17.9372 8H19.0772V1.04H17.9372ZM20.5642 5.46C20.5642 7.23 21.8042 8.07 23.2642 8.07C24.7142 8.07 25.9942 7.23 25.9942 5.46V1.05H24.8542V5.48C24.8542 6.56 24.2442 7.07 23.2742 7.07C22.3142 7.07 21.7042 6.56 21.7042 5.48V1.05H20.5642V5.46ZM32.1685 8H33.3685L30.8785 1.04H29.5585L27.0685 8H28.2585L28.7585 6.58H31.6685L32.1685 8ZM31.3485 5.65H29.0785L30.2185 2.42L31.3485 5.65ZM38.1412 3.13C38.1412 3.82 37.7412 4.31 36.8512 4.31H35.5912V1.98H36.8512C37.7412 1.98 38.1412 2.43 38.1412 3.13ZM34.4512 1.05V8H35.5912V5.22H36.4612L38.0612 8H39.4212L37.7012 5.12C38.8712 4.83 39.3112 3.95 39.3112 3.13C39.3112 2 38.5012 1.05 36.8512 1.05H34.4512ZM42.4795 5.48V8H43.6195V5.48L45.9195 1.05H44.6595L43.0495 4.46L41.4395 1.05H40.1695L42.4795 5.48ZM49.1819 7.9H54.0419V6.95H50.8719C52.0419 5.88 53.8419 4.53 53.8419 2.76C53.8419 1.45 53.0019 0.56 51.5219 0.56C50.2319 0.56 49.2119 1.33 49.1719 2.91H50.2719C50.3019 2.09 50.7319 1.53 51.5319 1.53C52.3819 1.53 52.7119 2.05 52.7119 2.81C52.7119 4.24 50.9019 5.56 49.1819 7.07V7.9ZM55.4134 6.02C55.5034 7.06 56.2034 7.99 57.7134 7.99C59.6234 7.99 60.1434 6.68 60.1434 4.22C60.1434 1.83 59.5134 0.539999 57.6334 0.539999C56.1034 0.539999 55.2134 1.5 55.2134 2.95C55.2134 4.49 56.2534 5.28 57.5334 5.28C58.1934 5.28 58.8234 5.03 59.1534 4.57C59.1534 6.43 58.6934 7.04 57.7834 7.04C57.0234 7.04 56.5934 6.67 56.4634 6.02H55.4134ZM57.7334 4.32C56.7234 4.32 56.3034 3.67 56.3034 2.92C56.3034 2.08 56.8134 1.49 57.6634 1.49C58.4934 1.49 59.0234 2.02 59.0234 2.95C59.0234 3.77 58.5434 4.32 57.7334 4.32ZM60.841 9.39H61.581L62.791 6.63H61.551L60.841 9.39ZM66.1448 7.9H71.0048V6.95H67.8348C69.0048 5.88 70.8048 4.53 70.8048 2.76C70.8048 1.45 69.9648 0.56 68.4848 0.56C67.1948 0.56 66.1748 1.33 66.1348 2.91H67.2348C67.2648 2.09 67.6948 1.53 68.4948 1.53C69.3448 1.53 69.6748 2.05 69.6748 2.81C69.6748 4.24 67.8648 5.56 66.1448 7.07V7.9ZM72.0063 4.26C72.0063 6.38 72.5663 7.98 74.6063 7.98C76.6463 7.98 77.2063 6.38 77.2063 4.26C77.2063 2.18 76.6463 0.58 74.6063 0.58C72.5663 0.58 72.0063 2.18 72.0063 4.26ZM76.0863 4.26C76.0863 5.69 75.9363 6.94 74.6063 6.94C73.2763 6.94 73.1263 5.69 73.1263 4.26C73.1263 2.9 73.2763 1.62 74.6063 1.62C75.9363 1.62 76.0863 2.9 76.0863 4.26ZM78.3225 7.9H83.1825V6.95H80.0125C81.1825 5.88 82.9825 4.53 82.9825 2.76C82.9825 1.45 82.1425 0.56 80.6625 0.56C79.3725 0.56 78.3525 1.33 78.3125 2.91H79.4125C79.4425 2.09 79.8725 1.53 80.6725 1.53C81.5225 1.53 81.8525 2.05 81.8525 2.81C81.8525 4.24 80.0425 5.56 78.3225 7.07V7.9ZM84.094 7.9H88.954V6.95H85.784C86.954 5.88 88.754 4.53 88.754 2.76C88.754 1.45 87.914 0.56 86.434 0.56C85.144 0.56 84.124 1.33 84.084 2.91H85.184C85.214 2.09 85.644 1.53 86.444 1.53C87.294 1.53 87.624 2.05 87.624 2.81C87.624 4.24 85.814 5.56 84.094 7.07V7.9Z" fill="#575D5E"/>
</svg>
